<svg viewBox="0 0 200 200" xmlns="http://www.w3.org/2000/svg" preserveAspectRatio="xMidYMid meet">
  <!-- Background circle -->
  <circle cx="100" cy="100" r="95" fill="#0F4C75" stroke="white" stroke-width="3"/>
  
  <!-- Top arc background -->
  <path d="M 40 100 Q 40 50 100 40 Q 160 50 160 100" fill="#0F4C75" stroke="white" stroke-width="2"/>
  
  <!-- Decorative leaves/wheat at top -->
  <g fill="white">
    <!-- Left leaf -->
    <ellipse cx="75" cy="55" rx="4" ry="12" fill="white"/>
    <path d="M 73 60 Q 72 68 74 75 M 75 60 Q 75 68 75 75 M 77 60 Q 78 68 76 75" stroke="white" stroke-width="1.5" fill="none"/>
    
    <!-- Center leaf -->
    <ellipse cx="100" cy="45" rx="4" ry="14" fill="white"/>
    <path d="M 98 60 Q 97 70 99 80 M 100 60 Q 100 70 100 80 M 102 60 Q 103 70 101 80" stroke="white" stroke-width="1.5" fill="none"/>
    
    <!-- Right leaf -->
    <ellipse cx="125" cy="55" rx="4" ry="12" fill="white"/>
    <path d="M 123 60 Q 122 68 124 75 M 125 60 Q 125 68 125 75 M 127 60 Q 128 68 126 75" stroke="white" stroke-width="1.5" fill="none"/>
  </g>
  
  <!-- Main text MJC -->
  <text x="100" y="125" font-size="56" font-weight="bold" fill="white" text-anchor="middle" font-family="Arial, sans-serif" letter-spacing="4">MJC</text>
  
  <!-- Bottom wave decoration -->
  <path d="M 40 140 Q 50 135 60 140 T 80 140 T 100 140 T 120 140 T 140 140 T 160 140" 
        stroke="white" stroke-width="2.5" fill="none" stroke-linecap="round"/>
  <path d="M 40 150 Q 50 145 60 150 T 80 150 T 100 150 T 120 150 T 140 150 T 160 150" 
        stroke="white" stroke-width="2.5" fill="none" stroke-linecap="round"/>
  
  <!-- School name arc bottom -->
  <text x="100" y="175" font-size="10" font-weight="bold" fill="white" text-anchor="middle" font-family="Arial, sans-serif" letter-spacing="1.5">MAESTRO JUAN DE LA CRUZ</text>
  <text x="100" y="190" font-size="8" fill="white" text-anchor="middle" font-family="Arial, sans-serif">ALBOX</text>
  
  <!-- Stars decoration -->
  <g fill="white">
    <circle cx="85" cy="177" r="1.5"/>
    <circle cx="100" cy="177" r="1.5"/>
    <circle cx="115" cy="177" r="1.5"/>
  </g>
</svg>
